#!OML:ASF \\Waltz\H\Terrain\Patient Classification 1\Animal2\Wednesday\Animal2.ASF
:FULLY-SPECIFIED
:DEGREES
1637
root 11.2477 17.0851 8.90124 -893.8 -44.2945 -182.17
lowerback 5.48297 -1.29019 -0.210789
upperback -4.48987 -2.35653 -4.99305
thorax -8.02905 -1.4149 -4.86596
lowerneck 7.80896 5.88036 13.203
upperneck -7.99771 6.53608 -26.6806
head -2.16494 3.75068 -11.0197
rclavicle 1.01032e-013 -3.18055e-014
rhumerus 35.2352 32.9061 -29.001
rradius 62.6002
rwrist -27.572
rhand -12.7515 22.5509
rfingers 7.12502
rthumb 13.3327 -7.00254
lclavicle 1.01032e-013 -3.18055e-014
lhumerus 13.5072 14.447 5.94399
lradius 59.6172
lwrist 13.6932
lhand -53.7192 11.4781
lfingers 7.12502
lthumb -26.1545 39.6965
rfemur -43.0492 -34.2351 40.5763
rtibia 41.1026
rfoot -31.3645 -29.2738
rtoes 47.3068
lfemur 0.261654 18.3138 -17.1069
ltibia 31.6293
lfoot -35.23 16.6961
ltoes 5.6797
1638
root 11.2603 17.1024 9.00681 -893.797 -45.3554 -182.095
lowerback 5.45178 -1.31726 -0.0575568
upperback -4.37774 -2.33764 -4.80784
thorax -7.88366 -1.3958 -4.75683
lowerneck 7.92571 6.00052 13.0213
upperneck -8.36541 6.65071 -26.5307
head -2.27754 3.83434 -10.948
rclavicle -5.16343e-014 6.20208e-014
rhumerus 35.3615 32.7216 -28.939
rradius 62.4605
rwrist -27.3392
rhand -12.8348 22.686
rfingers 7.12502
rthumb 13.2525 -6.87271
lclavicle -5.16343e-014 6.20208e-014
lhumerus 13.395 14.4573 5.96354
lradius 59.6111
lwrist 13.6209
lhand -53.7405 10.9298
lfingers 7.12502
lthumb -26.1749 39.1453
rfemur -43.1577 -34.1645 40.3763
rtibia 40.555
rfoot -31.1418 -29.8729
rtoes 47.4216
lfemur -0.0592054 17.6379 -17.3012
ltibia 31.1815
lfoot -35.3774 16.2456
ltoes 7.4023
1639
root 11.2713 17.1135 9.11162 -893.737 -46.3444 -182.182
lowerback 5.58144 -1.24017 -0.0111267
upperback -4.37211 -2.21181 -4.68802
thorax -7.93768 -1.32736 -4.66935
lowerneck 8.13004 5.99106 12.9803
upperneck -8.48656 6.66348 -26.3562
head -2.35561 3.86205 -10.8918
rclavicle 3.44394e-014 6.36111e-015
rhumerus 35.1751 32.7059 -28.874
rradius 62.3858
rwrist -27.4019
rhand -12.9395 22.5907
rfingers 7.12502
rthumb 13.1515 -6.97454
lclavicle 3.44394e-014 6.36111e-015
lhumerus 13.4043 14.171 6.06918
lradius 59.6897
lwrist 13.5615
lhand -53.4763 11.3427
lfingers 7.12502
lthumb -25.9219 39.5954
rfemur -43.0955 -34.096 39.9738
rtibia 40.0191
rfoot -31.5627 -29.6329
rtoes 48.3001
lfemur -0.273135 17.2666 -17.4759
ltibia 30.8214
lfoot -34.1405 17.5251
ltoes 0.934303
1640
root 11.2814 17.1164 9.21397 -893.707 -47.3245 -182.299
lowerback 5.61937 -1.13608 -0.0639566
upperback -4.26127 -2.04674 -4.55205
thorax -7.8168 -1.22918 -4.51357
lowerneck 8.30395 5.98635 13.036
upperneck -8.6722 6.66657 -26.3188
head -2.43762 3.88547 -10.9052
rclavicle -7.34012e-014 3.33958e-014
rhumerus 35.028 32.5094 -28.7804
rradius 62.2583
rwrist -27.5957
rhand -13.1655 22.3224
rfingers 7.12502
rthumb 12.9337 -7.2568
lclavicle -7.34012e-014 3.33958e-014
lhumerus 13.4791 13.9335 6.15955
lradius 59.6695
lwrist 13.3718
lhand -53.2379 11.6612
lfingers 7.12502
lthumb -25.6937 39.947
rfemur -42.9866 -34.1744 39.574
rtibia 39.4719
rfoot -32.034 -29.0522
rtoes 49.2773
lfemur -0.432118 16.9737 -17.5668
ltibia 30.5686
lfoot -32.5458 18.6105
ltoes -5.70655
1641
root 11.2928 17.1328 9.31252 -893.644 -48.2486 -182.434
lowerback 5.58977 -1.09408 -0.206568
upperback -4.11723 -1.96347 -4.34961
thorax -7.62241 -1.1626 -4.22609
lowerneck 8.58418 6.09041 12.7934
upperneck -9.41977 6.66057 -26.3347
head -2.70742 3.93425 -10.9114
rclavicle -3.926e-015 -2.8625e-014
rhumerus 35.1156 32.3596 -28.7186
rradius 61.9949
rwrist -27.3884
rhand -13.1856 22.1767
rfingers 7.12502
rthumb 12.9142 -7.40366
lclavicle -3.926e-015 -2.8625e-014
lhumerus 13.4293 13.9529 6.2707
lradius 59.515
lwrist 13.1837
lhand -53.1179 10.2659
lfingers 7.12502
lthumb -25.5787 38.5683
rfemur -42.9152 -34.1574 39.1066
rtibia 38.9099
rfoot -31.4464 -29.0736
rtoes 48.9502
lfemur -0.676401 16.7467 -17.6041
ltibia 30.4246
lfoot -31.6313 18.0071
ltoes -6.55194
1642
root 11.3035 17.1615 9.41199 -893.418 -49.1676 -182.733
lowerback 5.84636 -1.02784 -0.260201
upperback -4.26018 -1.88778 -4.29489
thorax -7.91625 -1.12398 -4.14558
lowerneck 8.73062 6.09654 13.4606
upperneck -8.73418 6.94629 -26.3541
head -2.4523 4.05847 -11.0186
rclavicle 4.65653e-014 3.81667e-014
rhumerus 34.7778 32.591 -28.9907
rradius 61.816
rwrist -26.9677
rhand -13.0467 22.064
rfingers 7.12502
rthumb 13.0482 -7.50785
lclavicle 4.65653e-014 3.81667e-014
lhumerus 13.3352 13.3519 6.11224
lradius 59.5541
lwrist 13.1904
lhand -53.2607 9.72485
lfingers 7.12502
lthumb -25.7155 38.0076
rfemur -42.8466 -34.0108 38.4099
rtibia 38.2917
rfoot -30.1178 -28.9006
rtoes 48.5307
lfemur -1.03681 16.7593 -17.6996
ltibia 30.3794
lfoot -31.1099 16.3401
ltoes -5.13016
1643
root 11.3112 17.1783 9.517 -893.093 -50.0258 -183.129
lowerback 6.03459 -0.928717 -0.243632
upperback -4.3775 -1.76581 -4.30974
thorax -8.14538 -1.06925 -4.1866
lowerneck 8.80062 6.08184 13.8238
upperneck -8.38375 7.06611 -26.4101
head -2.32344 4.11091 -11.095
rclavicle 3.43897e-014 3.73715e-014
rhumerus 34.3662 32.6969 -29.2961
rradius 61.7963
rwrist -26.8668
rhand -13.1126 21.8916
rfingers 7.12502
rthumb 12.9847 -7.68432
lclavicle 3.43897e-014 3.73715e-014
lhumerus 13.1738 12.4242 5.61267
lradius 59.6907
lwrist 13.4361
lhand -53.4037 10.5027
lfingers 7.12502
lthumb -25.8524 38.7656
rfemur -42.7199 -33.7875 37.5683
rtibia 37.6038
rfoot -29.152 -27.2941
rtoes 49.3372
lfemur -1.44797 16.878 -17.9171
ltibia 30.4098
lfoot -30.8006 14.7451
ltoes -4.32332
1644
root 11.3178 17.1901 9.62054 -893.198 -50.8362 -183.144
lowerback 6.16929 -0.863938 0.0408574
upperback -4.30611 -1.63716 -4.26461
thorax -8.14388 -1.01526 -4.31598
lowerneck 8.79448 6.13115 13.8102
upperneck -8.42218 7.16118 -26.2431
head -2.32085 4.16067 -11.0308
rclavicle 1.6201e-014 7.95139e-015
rhumerus 34.1503 32.6701 -29.6621
rradius 61.7269
rwrist -27.0308
rhand -13.312 22.2237
rfingers 7.12502
rthumb 12.7924 -7.36435
lclavicle 1.6201e-014 7.95139e-015
lhumerus 13.0936 12.035 5.26033
lradius 59.6643
lwrist 13.6017
lhand -53.8745 11.0802
lfingers 7.12502
lthumb -26.3032 39.2766
rfemur -42.3252 -33.5258 36.8614
rtibia 36.8984
rfoot -28.0905 -25.3039
rtoes 49.7242
lfemur -1.67746 17.2003 -17.8221
ltibia 30.4412
lfoot -30.2767 13.8758
ltoes -6.16575
1645
root 11.3266 17.2115 9.7204 -893.194 -51.6044 -183.232
lowerback 6.33702 -0.757655 0.278663
upperback -4.30633 -1.46816 -4.25854
thorax -8.23524 -0.944206 -4.46741
lowerneck 8.7652 6.14151 13.9886
upperneck -8.25553 7.27459 -26.0516
head -2.24601 4.20876 -10.9839
rclavicle -9.27827e-014 -4.13472e-014
rhumerus 33.8504 32.7003 -30.1126
rradius 61.5555
rwrist -27.0188
rhand -13.4417 22.7532
rfingers 7.12502
rthumb 12.6674 -6.84261
lclavicle -9.27827e-014 -4.13472e-014
lhumerus 13.2027 11.9271 5.22577
lradius 59.5643
lwrist 13.5927
lhand -54.2514 11.1699
lfingers 7.12502
lthumb -26.664 39.3119
rfemur -41.9447 -33.0566 36.0893
rtibia 36.2129
rfoot -26.5556 -23.9513
rtoes 48.1282
lfemur -1.93223 17.6139 -17.8121
ltibia 30.419
lfoot -29.5847 13.1405
ltoes -7.94704
1646
root 11.3362 17.2377 9.82463 -892.366 -52.331 -184.044
lowerback 6.26346 -0.547325 0.0576188
upperback -4.34191 -1.21987 -4.3542
thorax -8.20771 -0.815742 -4.4781
lowerneck 8.76242 6.12942 14.2024
upperneck -8.15551 7.33687 -25.9782
head -2.19831 4.23713 -10.992
rclavicle -1.01132e-014 5.96354e-014
rhumerus 33.4328 32.5764 -30.298
rradius 61.4657
rwrist -26.9339
rhand -13.5502 22.8976
rfingers 7.12502
rthumb 12.5628 -6.70472
lclavicle -1.01132e-014 5.96354e-014
lhumerus 13.4909 11.8353 5.41775
lradius 59.4249
lwrist 13.3905
lhand -53.665 9.69967
lfingers 7.12502
lthumb -26.1026 37.9258
rfemur -41.9349 -32.4446 34.9636
rtibia 35.5198
rfoot -25.2005 -22.7466
rtoes 45.6519
lfemur -2.46335 17.6682 -18.536
ltibia 30.3309
lfoot -29.2062 12.329
ltoes -8.15863
1647
root 11.3432 17.2619 9.93075 -891.656 -53.1637 -184.775
lowerback 6.21833 -0.471208 -0.0566001
upperback -4.36515 -1.13273 -4.38679
thorax -8.19783 -0.768515 -4.45996
lowerneck 9.06349 6.24657 14.1749
upperneck -8.37101 7.51415 -25.8657
head -2.2807 4.35363 -10.9672
rclavicle -4.91495e-014 -8.74653e-015
rhumerus 33.3991 32.6665 -30.2635
rradius 61.3786
rwrist -27.1167
rhand -13.6464 22.7397
rfingers 7.12502
rthumb 12.4701 -6.86827
lclavicle -4.91495e-014 -8.74653e-015
lhumerus 13.4438 11.5969 5.35265
lradius 59.3589
lwrist 13.261
lhand -53.209 8.87835
lfingers 7.12502
lthumb -25.6659 37.1682
rfemur -41.8335 -31.9176 33.8184
rtibia 34.7617
rfoot -23.9566 -21.5269
rtoes 43.9927
lfemur -2.92283 17.4669 -19.2444
ltibia 30.1748
lfoot -28.9209 11.9243
ltoes -9.10794
1648
root 11.3518 17.2868 10.0305 -891.717 -54.0361 -184.778
lowerback 6.41502 -0.517438 0.21618
upperback -4.44051 -1.15457 -4.241
thorax -8.39813 -0.789006 -4.45822
lowerneck 9.54343 6.42721 14.0562
upperneck -8.51836 7.79968 -25.6749
head -2.36173 4.53152 -10.903
rclavicle 3.77691e-014 0
rhumerus 33.539 33.0353 -30.3561
rradius 61.2974
rwrist -27.2134
rhand -13.6591 22.4678
rfingers 7.12502
rthumb 12.4578 -7.14094
lclavicle 3.77691e-014 0
lhumerus 13.077 11.3085 5.14402
lradius 59.3342
lwrist 13.1413
lhand -53.1762 9.24987
lfingers 7.12502
lthumb -25.6345 37.5443
rfemur -41.281 -31.1477 32.9008
rtibia 33.9149
rfoot -22.8734 -20.1212
rtoes 43.9431
lfemur -3.13223 17.3015 -19.3924
ltibia 29.9648
lfoot -28.4161 12.012
ltoes -10.9363
1649
root 11.3631 17.3101 10.125 -891.931 -54.9581 -184.663
lowerback 6.68096 -0.526038 0.548104
upperback -4.47759 -1.11518 -4.09407
thorax -8.59425 -0.781996 -4.49697
lowerneck 9.78449 6.49089 13.913
upperneck -8.5361 7.92531 -25.4066
head -2.40397 4.60881 -10.7921
rclavicle 3.09359e-014 7.55382e-014
rhumerus 33.4544 33.3353 -30.4818
rradius 61.3784
rwrist -27.3986
rhand -13.9246 22.2018
rfingers 7.12502
rthumb 12.2018 -7.42229
lclavicle 3.09359e-014 7.55382e-014
lhumerus 12.9756 11.2292 5.18354
lradius 59.2096
lwrist 12.9129
lhand -53.4301 9.71791
lfingers 7.12502
lthumb -25.8777 37.9771
rfemur -40.4747 -30.1185 31.91
rtibia 32.9308
rfoot -22.2091 -18.842
rtoes 43.8322
lfemur -3.26759 17.0931 -19.4307
ltibia 29.7862
lfoot -28.0084 11.8251
ltoes -11.7624
1650
root 11.3718 17.3277 10.2196 -892.068 -56.0599 -184.64
lowerback 6.88388 -0.537482 0.913244
upperback -4.4066 -1.07103 -3.9895
thorax -8.63744 -0.772423 -4.5991
lowerneck 9.81248 6.51585 13.8897
upperneck -8.604 7.97219 -25.2927
head -2.42504 4.63681 -10.7506
rclavicle 1.64743e-014 3.10104e-014
rhumerus 33.313 33.376 -30.5595
rradius 61.3521
rwrist -27.6159
rhand -14.0927 22.1677
rfingers 7.12502
rthumb 12.0398 -7.46595
lclavicle 1.64743e-014 3.10104e-014
lhumerus 13.1041 11.2789 5.34285
lradius 59.1205
lwrist 12.8145
lhand -53.8531 10.0937
lfingers 7.12502
lthumb -26.2827 38.2931
rfemur -39.5828 -29.1075 30.7785
rtibia 31.8235
rfoot -21.4985 -17.9176
rtoes 42.6264
lfemur -3.44074 16.6097 -19.5335
ltibia 29.6868
lfoot -27.8221 11.0181
ltoes -9.97057
1651
root 11.3794 17.3483 10.3189 -892.627 -57.2354 -184.181
lowerback 6.8484 -0.557458 1.54727
upperback -4.06996 -0.986122 -3.84444
thorax -8.25272 -0.741286 -4.81216
lowerneck 9.65663 6.57921 14.1929
upperneck -8.81842 8.04756 -25.549
head -2.41212 4.67604 -10.8967
rclavicle -4.89756e-014 -6.75868e-014
rhumerus 33.2608 32.8284 -30.8299
rradius 61.0351
rwrist -27.413
rhand -13.4837 22.4059
rfingers 7.12502
rthumb 12.6269 -7.1925
lclavicle -4.89756e-014 -6.75868e-014
lhumerus 13.2863 11.7356 5.41503
lradius 59.0539
lwrist 12.6587
lhand -53.7118 8.89007
lfingers 7.12502
lthumb -26.1475 37.1096
rfemur -38.5706 -27.8861 29.7382
rtibia 30.759
rfoot -20.7532 -16.7955
rtoes 42.1092
lfemur -3.58034 15.762 -19.4452
ltibia 29.6091
lfoot -27.5238 10.7059
ltoes -9.07927
